<svg width="40" height="40" viewBox="0 0 40 40" fill="none" xmlns="http://www.w3.org/2000/svg">
<circle cx="20" cy="20" r="20" fill="#00D1FF"/>
<circle cx="20" cy="20" r="12" fill="white"/>
<path d="M23.7577 16.684C23.1837 14.878 21.8397 13.982 19.9357 13.982C17.5977 13.982 16.3097 15.312 16.3097 16.95C16.3097 18.616 17.0517 19.526 19.3617 20.212L19.9217 20.38C21.6997 20.884 22.0357 21.318 22.0357 22.256C22.0357 23.194 21.3917 23.81 19.9637 23.81C18.8157 23.81 17.9897 23.11 17.7097 21.85L15.9037 22.424C16.4217 24.314 17.8917 25.238 20.0057 25.238C22.6097 25.238 23.9257 23.922 23.9257 22.018C23.9257 20.422 23.2257 19.484 20.7477 18.812L20.1737 18.644C18.6057 18.21 18.1857 17.776 18.1857 16.824C18.1857 15.956 18.8437 15.41 19.9917 15.41C20.9997 15.41 21.6437 16.012 21.9237 17.188L23.7577 16.684Z" fill="#00D1FF"/>
</svg>
