<svg width="30" height="30" viewBox="0 0 30 30" fill="none" xmlns="http://www.w3.org/2000/svg">
<g clip-path="url(#clip0_1213_53)">
<path d="M26.7225 21.1413C24.8325 19.5438 23.7487 17.2087 23.7487 14.735V11.25C23.7487 6.85125 20.4812 3.21 16.2487 2.6V1.25C16.2487 0.55875 15.6887 0 14.9987 0C14.3087 0 13.7487 0.55875 13.7487 1.25V2.6C9.515 3.21 6.24875 6.85125 6.24875 11.25V14.735C6.24875 17.2087 5.165 19.5437 3.26375 21.1512C2.7775 21.5675 2.49875 22.1725 2.49875 22.8125C2.49875 24.0187 3.48 25 4.68625 25H25.3112C26.5175 25 27.4987 24.0187 27.4987 22.8125C27.4987 22.1725 27.22 21.5675 26.7225 21.1413Z" fill="#4C7DF0" fill-opacity="0.5"/>
<path d="M15.0008 30C17.2645 30 19.1583 28.3863 19.5933 26.25H10.4083C10.8433 28.3863 12.737 30 15.0008 30Z" fill="#4C7DF0" fill-opacity="0.5"/>
<circle cx="22" cy="5" r="4.5" fill="#ED0D43" stroke="white"/>
</g>
<defs>
<clipPath id="clip0_1213_53">
<rect width="30" height="30" fill="white"/>
</clipPath>
</defs>
</svg>
