<svg width="52" height="42" viewBox="0 0 52 42" fill="none" xmlns="http://www.w3.org/2000/svg">
<path d="M2.09 34.77C1.71 35.36 1.56 35.79 1.56 36.2C1.56 37.5 2.69 38.22 5 38.22C6.08 38.22 7 38.15 7.93 37.98C8.05 37.96 8.11 37.92 8.1 37.83C8.08 37.58 7.99 37.04 7.94 36.85C7.92 36.76 7.87 36.73 7.73 36.76C6.91 36.94 5.99 37.05 5.02 37.05C3.3 37.05 2.65 36.74 2.65 36.11C2.65 35.91 2.76 35.58 2.91 35.35C2.96 35.27 2.95 35.22 2.86 35.17C2.6 35.03 2.35 34.9 2.09 34.77ZM2.31 30.99C2.29 31.35 2.27 31.64 2.27 31.88C2.27 32 2.31 32.04 2.4 32.06C2.97 32.17 3.83 32.23 4.24 32.23C4.44 32.23 4.75 32.23 4.97 32.2C4.62 32.41 4.18 32.69 3.66 33.03C3.95 33.11 4.16 33.22 4.36 33.35C4.43 33.39 4.5 33.41 4.57 33.41C4.65 33.41 4.74 33.38 4.82 33.32C5.63 32.8 6.32 32.47 7.27 32.33C7.39 32.32 7.44 32.26 7.44 32.12C7.43 31.78 7.39 31.5 7.35 31.27C7.34 31.19 7.3 31.15 7.2 31.16C6.56 31.21 5.85 31.25 5.12 31.25C4.03 31.25 3.07 31.17 2.31 30.99ZM7.31 30.51C7.7 30.83 8.02 31.21 8.32 31.67C8.37 31.74 8.42 31.75 8.49 31.7L8.91 31.39C8.98 31.34 8.98 31.29 8.94 31.23C8.66 30.8 8.3 30.4 7.99 30.16C7.93 30.11 7.89 30.1 7.84 30.14L7.31 30.51ZM8.23 29.85C8.64 30.19 8.96 30.57 9.23 31C9.27 31.06 9.32 31.09 9.4 31.03L9.8 30.72C9.88 30.66 9.87 30.6 9.83 30.54C9.61 30.19 9.25 29.79 8.88 29.51C8.82 29.46 8.79 29.45 8.73 29.49L8.23 29.85ZM12.75 33.43C12.25 34.65 11.53 35.58 10.79 36.26C10.92 36.44 11.09 36.78 11.19 37.06C11.23 37.18 11.27 37.23 11.32 37.23C11.37 37.23 11.42 37.18 11.5 37.09C12.11 36.37 12.63 35.57 12.99 34.61C12.98 36.89 12.93 38.51 12.93 38.69C12.93 38.78 12.94 38.79 13.04 38.79H13.87C13.98 38.79 13.99 38.78 13.99 38.69C13.99 38.51 13.93 36.87 13.93 34.46C14.19 35.03 14.54 35.53 14.92 35.99C14.99 36.08 15.05 36.13 15.09 36.13C15.14 36.13 15.18 36.07 15.23 35.95C15.33 35.71 15.48 35.44 15.63 35.26C15.1 34.81 14.5 34.13 14.13 33.43H14.21C15.07 33.43 15.36 33.45 15.42 33.45C15.52 33.45 15.53 33.44 15.53 33.34V32.62C15.53 32.52 15.52 32.51 15.42 32.51C15.36 32.51 15.07 32.53 14.21 32.53H13.95V31.04C14.25 30.95 14.53 30.85 14.8 30.76C14.97 30.7 15.11 30.64 15.24 30.63C15.35 30.63 15.43 30.59 15.43 30.51C15.43 30.44 15.4 30.4 15.33 30.32C15.15 30.12 14.95 29.93 14.66 29.72C14.5 29.82 14.39 29.88 14.15 29.98C13.5 30.25 12.28 30.6 11.06 30.75C11.19 30.9 11.3 31.1 11.39 31.3C11.51 31.61 11.51 31.61 11.8 31.56C12.2 31.49 12.59 31.4 12.97 31.31V32.53H12.32C11.45 32.53 11.16 32.51 11.1 32.51C11 32.51 10.99 32.52 10.99 32.62V33.34C10.99 33.44 11 33.45 11.1 33.45C11.16 33.45 11.45 33.43 12.32 33.43H12.75ZM19.5 31.21C19.5 30.53 19.5 30.31 19.56 30.19C19.59 30.12 19.62 30.07 19.62 29.98C19.62 29.93 19.56 29.88 19.46 29.87C19.12 29.83 18.76 29.81 18.39 29.8C18.46 30.27 18.47 30.58 18.47 31.23V37.24C18.47 37.56 18.35 37.63 18.03 37.63C17.67 37.63 17.29 37.61 16.89 37.56C17.03 37.75 17.14 38.02 17.21 38.33C17.28 38.65 17.28 38.65 17.59 38.65C18.56 38.64 18.88 38.58 19.16 38.39C19.45 38.2 19.52 37.91 19.52 37.42C19.52 36.92 19.5 36.13 19.5 35.43V31.21ZM16.13 34.76C16.13 35.61 16.11 36.02 16.11 36.08C16.11 36.18 16.12 36.19 16.22 36.19H17.05C17.15 36.19 17.16 36.18 17.16 36.08C17.16 36.02 17.14 35.61 17.14 34.76V32C17.14 31.27 17.14 31.07 17.18 30.93C17.2 30.86 17.24 30.79 17.24 30.71C17.24 30.65 17.2 30.61 17.1 30.6C16.75 30.55 16.43 30.53 16.06 30.52C16.12 30.99 16.13 31.35 16.13 32.01V34.76ZM29.96 31.82C29.96 30.78 29.98 30.24 29.98 30.18C29.98 30.07 29.97 30.06 29.87 30.06C29.8 30.06 29.46 30.08 28.49 30.08H23.79C22.83 30.08 22.48 30.06 22.42 30.06C22.31 30.06 22.3 30.07 22.3 30.18C22.3 30.24 22.32 30.78 22.32 31.82V33.46C22.32 35.87 22.02 37.06 21.29 38C21.53 38.12 21.76 38.27 22 38.51C22.11 38.62 22.16 38.67 22.21 38.67C22.26 38.67 22.31 38.61 22.39 38.47C22.85 37.71 23.12 36.94 23.26 35.7H25.54V36.89C25.54 37.86 25.52 38.3 25.52 38.37C25.52 38.47 25.53 38.48 25.63 38.48H26.49C26.59 38.48 26.6 38.47 26.6 38.37C26.6 38.31 26.58 37.86 26.58 36.89V35.7H28.93V37.36C28.93 37.59 28.84 37.69 28.61 37.69C28.28 37.69 28.09 37.68 27.68 37.65C27.8 37.86 27.89 38.09 27.96 38.41C28.03 38.71 28.02 38.7 28.33 38.7C29.16 38.7 29.46 38.61 29.65 38.44C29.88 38.25 29.98 38 29.98 37.63C29.98 37.22 29.96 36.71 29.96 36.25V31.82ZM26.58 34.77V33.36H28.93V34.77H26.58ZM28.93 31.04V32.43H26.58V31.04H28.93ZM23.33 34.77C23.35 34.38 23.36 33.95 23.36 33.47V33.36H25.54V34.77H23.33ZM23.36 32.43V31.04H25.54V32.43H23.36ZM35 32.31C34.98 35.35 34.23 36.73 31.93 37.86C32.16 38.02 32.37 38.22 32.53 38.47C32.62 38.62 32.66 38.69 32.73 38.69C32.78 38.69 32.84 38.65 32.97 38.58C34.67 37.57 35.52 36.4 35.9 34.55H38.62C38.57 35.67 38.46 36.59 38.31 37.09C38.22 37.43 38.05 37.59 37.72 37.59C37.46 37.59 37.01 37.57 36.49 37.5C36.59 37.67 36.67 37.96 36.71 38.27C36.75 38.59 36.75 38.61 37.03 38.63C37.36 38.65 37.64 38.65 37.82 38.65C38.82 38.65 39.21 38.36 39.43 37.41C39.56 36.86 39.68 35.93 39.76 34.44C39.77 34.19 39.78 33.92 39.8 33.66C39.8 33.55 39.78 33.52 39.68 33.52C39.62 33.52 39.34 33.54 38.5 33.54H36.05C36.09 33.16 36.12 32.75 36.13 32.31H39.59C40.49 32.31 40.79 32.33 40.85 32.33C40.94 32.33 40.95 32.32 40.95 32.21V31.4C40.95 31.29 40.94 31.28 40.85 31.28C40.79 31.28 40.49 31.3 39.59 31.3H36.96V30.62C36.96 30.25 36.98 30.12 37.02 30.04C37.05 29.96 37.08 29.9 37.08 29.83C37.08 29.77 37.02 29.73 36.92 29.72C36.58 29.69 36.19 29.67 35.83 29.67C35.88 29.91 35.9 30.22 35.9 30.65V31.3H33.45C32.56 31.3 32.26 31.28 32.19 31.28C32.09 31.28 32.08 31.29 32.08 31.4V32.21C32.08 32.32 32.09 32.33 32.19 32.33C32.26 32.33 32.56 32.31 33.45 32.31H35ZM46.85 34.85C46.6 35.76 46.29 36.55 45.95 37.29C45.9 37.3 45.84 37.3 45.79 37.3C45.48 37.33 45.17 37.34 44.74 37.34C44.8 37.7 44.87 38.01 44.96 38.33C44.99 38.43 45.04 38.49 45.12 38.49C45.19 38.49 45.24 38.46 45.3 38.42C45.36 38.38 45.46 38.36 45.67 38.33C47.29 38.17 48.6 38 50.08 37.75C50.23 38.02 50.37 38.29 50.51 38.56C50.53 38.61 50.55 38.64 50.58 38.64C50.61 38.64 50.65 38.62 50.71 38.58L51.33 38.21C51.45 38.13 51.45 38.12 51.4 38.02C50.9 37.07 50.32 36.22 49.63 35.44C49.56 35.37 49.53 35.36 49.43 35.42L48.89 35.74C48.77 35.81 48.76 35.84 48.83 35.93C49.08 36.24 49.33 36.57 49.56 36.91C48.75 37.03 47.96 37.12 47.08 37.2C47.39 36.49 47.69 35.7 47.96 34.85H49.97C50.95 34.85 51.3 34.87 51.36 34.87C51.45 34.87 51.46 34.86 51.46 34.75V33.97C51.46 33.87 51.45 33.86 51.36 33.86C51.3 33.86 50.95 33.88 49.97 33.88H48.47V32.42H49.56C50.52 32.42 50.85 32.44 50.91 32.44C51.01 32.44 51.02 32.43 51.02 32.33V31.56C51.02 31.46 51.01 31.45 50.91 31.45C50.85 31.45 50.52 31.47 49.56 31.47H48.47V31C48.47 30.43 48.49 30.2 48.54 30.08C48.57 30 48.59 29.95 48.59 29.88C48.59 29.82 48.53 29.77 48.43 29.76C48.1 29.73 47.75 29.71 47.37 29.7C47.42 30.1 47.44 30.43 47.44 31.03V31.47H46.75C45.79 31.47 45.46 31.45 45.41 31.45C45.31 31.45 45.3 31.46 45.3 31.56V32.33C45.3 32.43 45.31 32.44 45.41 32.44C45.46 32.44 45.79 32.42 46.75 32.42H47.44V33.88H46.29C45.31 33.88 44.96 33.86 44.9 33.86C44.8 33.86 44.79 33.87 44.79 33.97V34.75C44.79 34.86 44.8 34.87 44.9 34.87C44.96 34.87 45.31 34.85 46.29 34.85H46.85ZM42.45 38.1C42.75 38.34 43.02 38.51 43.27 38.65C43.35 38.69 43.4 38.7 43.45 38.7C43.51 38.7 43.55 38.65 43.57 38.57C43.59 38.48 43.65 38.34 43.72 38.18C44.02 37.5 44.32 36.72 44.57 35.92C44.6 35.81 44.62 35.74 44.62 35.69C44.62 35.6 44.57 35.55 44.41 35.44C44.19 35.28 43.97 35.08 43.83 34.94C43.54 35.91 43.23 36.69 42.91 37.35C42.77 37.65 42.66 37.83 42.45 38.1ZM42.46 32.91C42.42 32.96 42.4 32.99 42.4 33.02C42.4 33.05 42.42 33.07 42.46 33.1C42.95 33.39 43.47 33.78 43.9 34.21C43.94 34.24 43.96 34.26 43.99 34.26C44.02 34.26 44.05 34.23 44.1 34.16L44.55 33.55C44.59 33.5 44.6 33.47 44.6 33.44C44.6 33.41 44.59 33.38 44.55 33.35C44.1 32.94 43.59 32.61 43.1 32.32C43.01 32.27 42.97 32.28 42.9 32.37L42.46 32.91ZM42.9 30.39C42.81 30.5 42.81 30.52 42.9 30.57C43.35 30.83 43.93 31.3 44.34 31.73C44.43 31.8 44.45 31.79 44.52 31.69L44.97 31.08C45.06 30.96 45.05 30.93 44.98 30.87C44.53 30.47 44.02 30.08 43.54 29.81C43.46 29.76 43.43 29.76 43.35 29.86L42.9 30.39Z" fill="#4C7DF0"/>
<g clip-path="url(#clip0_1213_59)">
<path d="M26.0012 2.81226C25.6129 2.81226 25.2981 3.12707 25.2981 3.51538C25.2981 3.90369 25.6129 4.21851 26.0012 4.21851C28.3278 4.21851 30.2206 6.11104 30.2206 8.43726C30.2206 8.82557 30.5354 9.14038 30.9238 9.14038C31.3121 9.14038 31.6269 8.82557 31.6269 8.43726C31.6269 5.33563 29.1032 2.81226 26.0012 2.81226Z" fill="#4C7DF0"/>
<path d="M24.1874 0.188718C21.0107 0.852515 18.4349 3.40364 17.7571 6.60009C17.1848 9.29925 17.89 12.0091 19.692 14.0348C20.5728 15.0249 21.0779 16.332 21.0779 17.6243V19.0306C21.0779 19.9662 21.6904 20.7611 22.5354 21.0364C22.8133 22.6782 24.2383 23.9993 25.9998 23.9993C27.7608 23.9993 29.1862 22.6786 29.4642 21.0364C30.3092 20.7611 30.9217 19.9662 30.9217 19.0305V17.6243C30.9217 16.3294 31.4285 15.0381 32.3486 13.9882C33.6955 12.4517 34.4373 10.4801 34.4373 8.43684C34.4373 3.11348 29.5647 -0.934688 24.1874 0.188718ZM25.9998 22.5931C25.0959 22.5931 24.3035 21.9712 24.0108 21.1353H27.9887C27.6961 21.9712 26.9036 22.5931 25.9998 22.5931ZM29.5154 19.0306C29.5154 19.4183 29.2 19.7337 28.8123 19.7337H23.1873C22.7996 19.7337 22.4842 19.4183 22.4842 19.0306V18.3275H29.5154V19.0306ZM31.2911 13.0614C30.3105 14.1802 29.7072 15.5292 29.5541 16.9212H22.4456C22.2927 15.5285 21.6909 14.1661 20.7428 13.1002C19.241 11.4119 18.6542 9.14901 19.1328 6.8918C19.6915 4.25676 21.8384 2.11622 24.475 1.5653C28.9762 0.624656 33.031 4.00491 33.031 8.43684C33.031 10.139 32.4131 11.7813 31.2911 13.0614Z" fill="#4C7DF0"/>
<path d="M16.1094 8.43726H14.7031C14.3148 8.43726 14 8.75207 14 9.14038C14 9.52869 14.3148 9.84351 14.7031 9.84351H16.1094C16.4977 9.84351 16.8125 9.52869 16.8125 9.14038C16.8125 8.75207 16.4977 8.43726 16.1094 8.43726Z" fill="#4C7DF0"/>
<path d="M16.4015 4.92113L15.4071 3.92677C15.1325 3.65218 14.6873 3.65218 14.4127 3.92677C14.1381 4.20136 14.1381 4.64654 14.4127 4.92113L15.4071 5.91549C15.6816 6.19008 16.1269 6.19013 16.4015 5.91549C16.676 5.6409 16.676 5.19572 16.4015 4.92113Z" fill="#4C7DF0"/>
<path d="M16.4015 12.3643C16.1269 12.0897 15.6816 12.0897 15.4071 12.3643L14.4127 13.3586C14.1381 13.6332 14.1381 14.0784 14.4127 14.353C14.6873 14.6276 15.1325 14.6276 15.4071 14.353L16.4015 13.3586C16.676 13.084 16.676 12.6389 16.4015 12.3643Z" fill="#4C7DF0"/>
<path d="M37.2969 8.43726H35.8906C35.5023 8.43726 35.1875 8.75207 35.1875 9.14038C35.1875 9.52869 35.5023 9.84351 35.8906 9.84351H37.2969C37.6852 9.84351 38 9.52869 38 9.14038C38 8.75207 37.6852 8.43726 37.2969 8.43726Z" fill="#4C7DF0"/>
<path d="M37.589 3.92677C37.3144 3.65218 36.8692 3.65218 36.5946 3.92677L35.6002 4.92113C35.3256 5.19572 35.3256 5.64089 35.6002 5.91549C35.8748 6.19003 36.32 6.19008 36.5946 5.91549L37.589 4.92113C37.8636 4.64653 37.8636 4.20136 37.589 3.92677Z" fill="#4C7DF0"/>
<path d="M37.589 13.3586L36.5946 12.3643C36.3201 12.0897 35.8748 12.0897 35.6002 12.3643C35.3256 12.6389 35.3256 13.084 35.6002 13.3586L36.5946 14.353C36.8691 14.6275 37.3144 14.6276 37.589 14.353C37.8636 14.0784 37.8636 13.6332 37.589 13.3586Z" fill="#4C7DF0"/>
</g>
<defs>
<clipPath id="clip0_1213_59">
<rect width="24" height="24" fill="white" transform="translate(14)"/>
</clipPath>
</defs>
</svg>
