<svg width="30" height="30" viewBox="0 0 30 30" fill="none" xmlns="http://www.w3.org/2000/svg">
<g clip-path="url(#clip0_1213_50)">
<path d="M25.6023 4.39423C19.7432 -1.46479 10.2602 -1.46567 4.40032 4.39423C-0.311192 9.10569 -1.20151 16.1113 1.58396 21.6904L0.0397031 28.483C-0.161018 29.3659 0.630255 30.1575 1.51347 29.9568L8.30614 28.4125C18.1826 33.3436 29.9935 26.2046 29.9935 14.9953C29.9935 10.9908 28.434 7.22596 25.6023 4.39423ZM18.1287 18.7286H8.74646C8.06637 18.7286 7.51505 18.1772 7.51505 17.4971C7.51505 16.8171 8.06637 16.2657 8.74646 16.2657H18.1287C18.8088 16.2657 19.3601 16.8171 19.3601 17.4971C19.3601 18.1772 18.8088 18.7286 18.1287 18.7286ZM21.2561 13.7247H8.74646C8.06637 13.7247 7.51505 13.1734 7.51505 12.4933C7.51505 11.8132 8.06637 11.2619 8.74646 11.2619H21.2561C21.9362 11.2619 22.4875 11.8132 22.4875 12.4933C22.4875 13.1734 21.9362 13.7247 21.2561 13.7247Z" fill="#4C7DF0" fill-opacity="0.5"/>
</g>
<defs>
<clipPath id="clip0_1213_50">
<rect width="30" height="30" fill="white"/>
</clipPath>
</defs>
</svg>
