<svg width="20" height="20" viewBox="0 0 20 20" fill="none" xmlns="http://www.w3.org/2000/svg">
<g clip-path="url(#clip0_1_167)">
<path d="M17.0833 20.0026H7.08333C5.935 20.0026 5 19.0684 5 17.9193V5.41927C5 4.2701 5.935 3.33594 7.08333 3.33594H17.0833C18.2317 3.33594 19.1667 4.2701 19.1667 5.41927V17.9193C19.1667 19.0684 18.2317 20.0026 17.0833 20.0026ZM7.08333 4.16927C6.39417 4.16927 5.83333 4.7301 5.83333 5.41927V17.9193C5.83333 18.6084 6.39417 19.1693 7.08333 19.1693H17.0833C17.7725 19.1693 18.3333 18.6084 18.3333 17.9193V5.41927C18.3333 4.7301 17.7725 4.16927 17.0833 4.16927H7.08333Z" fill="#4C7DF0"/>
<path d="M3.7526 17.5H2.91927C1.77094 17.5 0.835938 16.5658 0.835938 15.4167V2.08333C0.835938 0.934167 1.77094 0 2.91927 0H12.9193C14.0676 0 15.0026 0.934167 15.0026 2.08333C15.0026 2.31333 14.8159 2.5 14.5859 2.5C14.3559 2.5 14.1693 2.31333 14.1693 2.08333C14.1693 1.39417 13.6084 0.833333 12.9193 0.833333H2.91927C2.2301 0.833333 1.66927 1.39417 1.66927 2.08333V15.4167C1.66927 16.1058 2.2301 16.6667 2.91927 16.6667H3.7526C3.9826 16.6667 4.16927 16.8533 4.16927 17.0833C4.16927 17.3133 3.9826 17.5 3.7526 17.5Z" fill="#4C7DF0"/>
<path d="M15.4193 14.1693H8.7526C8.5226 14.1693 8.33594 13.9826 8.33594 13.7526C8.33594 13.5226 8.5226 13.3359 8.7526 13.3359H15.4193C15.6493 13.3359 15.8359 13.5226 15.8359 13.7526C15.8359 13.9826 15.6493 14.1693 15.4193 14.1693Z" fill="#4C7DF0"/>
<path d="M15.4193 17.4974H8.7526C8.5226 17.4974 8.33594 17.3107 8.33594 17.0807C8.33594 16.8507 8.5226 16.6641 8.7526 16.6641H15.4193C15.6493 16.6641 15.8359 16.8507 15.8359 17.0807C15.8359 17.3107 15.6493 17.4974 15.4193 17.4974Z" fill="#4C7DF0"/>
<path d="M15.4193 10.8333H8.7526C8.5226 10.8333 8.33594 10.6467 8.33594 10.4167C8.33594 10.1867 8.5226 10 8.7526 10H15.4193C15.6493 10 15.8359 10.1867 15.8359 10.4167C15.8359 10.6467 15.6493 10.8333 15.4193 10.8333Z" fill="#4C7DF0"/>
<path d="M15.4193 7.4974H8.7526C8.5226 7.4974 8.33594 7.31073 8.33594 7.08073C8.33594 6.85073 8.5226 6.66406 8.7526 6.66406H15.4193C15.6493 6.66406 15.8359 6.85073 15.8359 7.08073C15.8359 7.31073 15.6493 7.4974 15.4193 7.4974Z" fill="#4C7DF0"/>
</g>
<defs>
<clipPath id="clip0_1_167">
<rect width="20" height="20" fill="white"/>
</clipPath>
</defs>
</svg>
