<svg width="20" height="20" viewBox="0 0 20 20" fill="none" xmlns="http://www.w3.org/2000/svg">
<g clip-path="url(#clip0_1_178)">
<path d="M19.0466 11.7148H18.7473V9.01895C18.7473 8.59215 18.5349 8.21426 18.2105 7.98465V7.61758C18.2105 7.08512 17.7773 6.65195 17.2449 6.65195H17.0214L17.8764 5.39727C18.163 4.97672 18.0541 4.40137 17.6335 4.11473L11.8315 0.16082C11.6278 0.0219529 11.3823 -0.0292971 11.1399 0.0166795C10.8977 0.0625779 10.6878 0.200039 10.549 0.403789L5.54112 7.75234H4.14757L4.48378 4.34883C4.48757 4.31047 4.51249 4.27723 4.54726 4.26414C4.98042 4.10082 5.35581 3.79582 5.60425 3.40535C5.62382 3.37461 5.66073 3.35703 5.69894 3.3609L7.88468 3.57684C8.0414 3.59203 8.18081 3.47789 8.19628 3.32125C8.21175 3.16461 8.09733 3.02512 7.94069 3.00965L5.75495 2.79371C5.50124 2.76887 5.25929 2.88578 5.12335 3.09938C4.94069 3.38648 4.66468 3.6107 4.3462 3.73078C4.10647 3.82117 3.94186 4.03648 3.91655 4.29277L3.57483 7.75231H3.21143L3.74315 2.36934C3.76229 2.17559 3.93522 2.03324 4.12921 2.05266L8.54616 2.48898C8.7028 2.5041 8.8423 2.39004 8.85776 2.2334C8.87323 2.07676 8.75882 1.93727 8.60218 1.9218L4.18522 1.48547C3.67882 1.43551 3.22597 1.8068 3.17593 2.31328L2.74733 6.65195H2.01745C1.48503 6.65195 1.05183 7.08512 1.05183 7.61758V7.86797C0.616239 8.06852 0.312958 8.50883 0.312958 9.01895V18.7336C0.312958 19.432 0.881161 20.0002 1.57964 20.0002H17.4807C18.1791 20.0002 18.7473 19.432 18.7473 18.7336V16.0377H19.0466C19.3999 16.0377 19.6873 15.7504 19.6873 15.3971V12.3555C19.6873 12.0022 19.3999 11.7148 19.0466 11.7148ZM17.2449 7.22195C17.4631 7.22191 17.6405 7.39941 17.6405 7.61762V7.76281C17.5881 7.75617 17.5349 7.75238 17.4807 7.75238H16.2715L16.633 7.22195H17.2449ZM11.02 0.724726C11.0731 0.646797 11.1534 0.594219 11.246 0.57664C11.2682 0.572461 11.2904 0.570351 11.3125 0.570351C11.3826 0.570351 11.4512 0.591367 11.5105 0.631758L17.3125 4.58566C17.4734 4.69531 17.5151 4.91539 17.4055 5.07625L15.5818 7.75227H15.1442L16.0383 6.44027C16.1833 6.2275 16.1952 5.95672 16.0694 5.73355C15.9021 5.43707 15.8343 5.08797 15.8784 4.75051C15.9112 4.49945 15.8008 4.25438 15.5901 4.11086L12.5824 2.06117C12.3717 1.91762 12.1032 1.90445 11.8816 2.02684C11.5837 2.19129 11.234 2.25586 10.8969 2.20867C10.6469 2.17359 10.3934 2.28648 10.2505 2.49605L6.66851 7.75231H6.23085L11.02 0.724726ZM11.1455 5.56422C9.90441 5.56422 8.88565 6.53191 8.80265 7.75231H7.35815L10.7214 2.81703C10.7214 2.81703 10.7214 2.81703 10.7214 2.81703C10.7405 2.78895 10.7722 2.77223 10.8048 2.77223C10.8091 2.77223 10.8134 2.77254 10.8178 2.77313C11.2763 2.83727 11.7519 2.74953 12.157 2.52582C12.1889 2.50816 12.2298 2.5107 12.2614 2.53219L15.2692 4.58191C15.3007 4.6034 15.318 4.64059 15.3133 4.67668C15.2532 5.13563 15.3455 5.61039 15.573 6.01359C15.5912 6.04598 15.589 6.08746 15.5673 6.1193L14.4545 7.75227H13.4884C13.4053 6.53191 12.3866 5.56422 11.1455 5.56422ZM12.9169 7.75234H9.37409C9.45573 6.84652 10.2188 6.13422 11.1455 6.13422C12.0722 6.13418 12.8353 6.84652 12.9169 7.75234ZM1.62179 7.61758C1.62179 7.39938 1.79925 7.22188 2.01745 7.22188H2.69104L2.63866 7.75231H1.62179V7.61758ZM0.882919 9.01895C0.882919 8.6348 1.19546 8.32227 1.57964 8.32227H17.4807C17.8649 8.32227 18.1774 8.6348 18.1774 9.01895V9.80973H0.882919V9.01895ZM18.1774 18.7336C18.1774 19.1177 17.8649 19.4303 17.4807 19.4303H1.57964C1.19546 19.4303 0.882919 19.1177 0.882919 18.7336V17.9428H2.41972C2.57714 17.9428 2.70468 17.8152 2.70468 17.6579C2.70468 17.5005 2.5771 17.3729 2.41972 17.3729H0.882919V10.3797H18.1774V11.7148H15.4678H15.4677C14.614 11.7148 13.8744 12.2125 13.5235 12.9329C13.5223 12.9353 13.521 12.9376 13.5198 12.94C13.5168 12.9462 13.5142 12.9525 13.5113 12.9587C13.4695 13.0475 13.4332 13.1394 13.4036 13.2343C13.4035 13.2345 13.4035 13.2348 13.4034 13.235C13.3403 13.4377 13.3063 13.6531 13.3063 13.8763C13.3063 15.0681 14.2759 16.0377 15.4677 16.0377H15.4677H18.1773V17.3729H4.24448C4.08706 17.3729 3.95952 17.5005 3.95952 17.6579C3.95952 17.8152 4.0871 17.9428 4.24448 17.9428H18.1774V18.7336ZM19.1174 15.3971C19.1174 15.4361 19.0857 15.4678 19.0466 15.4678H15.4678C14.8645 15.4678 14.3385 15.1303 14.0687 14.6343C14.0564 14.6117 14.0447 14.5888 14.0335 14.5657C14.0111 14.5193 13.9909 14.4717 13.973 14.4229C13.9105 14.2524 13.8763 14.0682 13.8763 13.8763C13.8763 13.6843 13.9105 13.5002 13.973 13.3296C13.9909 13.2809 14.0111 13.2333 14.0335 13.1869C14.0447 13.1638 14.0564 13.1409 14.0687 13.1183C14.3385 12.6223 14.8645 12.2848 15.4678 12.2848H19.0466C19.0856 12.2848 19.1174 12.3165 19.1174 12.3555V15.3971Z" fill="#4C7DF0"/>
<path d="M15.5312 12.7188C14.8937 12.7188 14.375 13.2375 14.375 13.875C14.375 14.5125 14.8937 15.0312 15.5312 15.0312C16.1688 15.0312 16.6875 14.5125 16.6875 13.875C16.6875 13.2375 16.1688 12.7188 15.5312 12.7188ZM15.5312 14.4612C15.208 14.4612 14.945 14.1982 14.945 13.875C14.945 13.5518 15.208 13.2887 15.5312 13.2887C15.8545 13.2887 16.1175 13.5517 16.1175 13.875C16.1175 14.1983 15.8545 14.4612 15.5312 14.4612Z" fill="#4C7DF0"/>
</g>
<defs>
<clipPath id="clip0_1_178">
<rect width="20" height="20" fill="white"/>
</clipPath>
</defs>
</svg>
