<svg width="20" height="20" viewBox="0 0 20 20" fill="none" xmlns="http://www.w3.org/2000/svg">
<g clip-path="url(#clip0_1_122)">
<path d="M19.6648 9.10415L16.6337 6.07305V2.57162C16.6337 1.93851 16.1206 1.42543 15.4866 1.42543C14.854 1.42543 14.341 1.93851 14.341 2.57162V3.78039L12.0841 1.52341C10.9683 0.408189 9.0282 0.410167 7.91491 1.52543L0.336037 9.10415C-0.111361 9.55243 -0.111361 10.2778 0.336037 10.7254C0.783636 11.1736 1.51041 11.1736 1.95784 10.7254L9.53599 3.14647C9.78287 2.90089 10.218 2.90089 10.4636 3.14575L18.043 10.7254C18.2678 10.9495 18.5608 11.061 18.8537 11.061C19.1473 11.061 19.4408 10.9494 19.6648 10.7254C20.1124 10.2778 20.1124 9.55247 19.6648 9.10415Z" fill="#4C7DF0"/>
<path d="M10.4015 5.32179C10.1813 5.10172 9.82478 5.10172 9.60524 5.32179L2.93884 11.9862C2.83359 12.0914 2.77393 12.2351 2.77393 12.385V17.2457C2.77393 18.3864 3.69876 19.3111 4.83934 19.3111H8.13987V14.1997H11.8661V19.3111H15.1667C16.3072 19.3111 17.2321 18.3864 17.2321 17.2458V12.385C17.2321 12.2351 17.1729 12.0914 17.0672 11.9862L10.4015 5.32179Z" fill="#4C7DF0"/>
</g>
<defs>
<clipPath id="clip0_1_122">
<rect width="20" height="20" fill="white"/>
</clipPath>
</defs>
</svg>
