<svg width="20" height="20" viewBox="0 0 20 20" fill="none" xmlns="http://www.w3.org/2000/svg">
<path d="M14.4894 3.98637C14.4873 3.94288 14.4762 3.90031 14.4567 3.86137C14.4372 3.82244 14.4098 3.788 14.3763 3.76027C13.3273 2.89086 12.0422 2.35497 10.6863 2.22145C10.4617 2.1991 10.2332 2.18793 10.0049 2.18773C10.0032 2.18773 10.0016 2.1875 9.99988 2.1875C9.9982 2.1875 9.9966 2.18773 9.99492 2.18773C9.76648 2.18773 9.53809 2.1991 9.31359 2.22145C8.29473 2.32144 7.31127 2.64871 6.43564 3.17915C5.56002 3.7096 4.81454 4.42971 4.2541 5.28645L4.25172 5.28992C3.44619 6.51783 3.05491 7.97137 3.13516 9.43773C3.21541 10.9041 3.76298 12.3062 4.69769 13.4389C4.7254 13.4725 4.75982 13.4999 4.79875 13.5194C4.83768 13.5389 4.88026 13.5501 4.92375 13.5522C4.92871 13.5524 4.93363 13.5525 4.93859 13.5525C5.02146 13.5525 5.10093 13.5196 5.15953 13.461L14.3983 4.22215C14.4291 4.19136 14.4531 4.15448 14.4687 4.11387C14.4844 4.07327 14.4915 4.02984 14.4894 3.98637ZM8.98644 8.75H7.06801C7.09453 7.95234 7.22479 7.16153 7.45551 6.3975C8.19582 6.4935 8.94097 6.54765 9.68738 6.55969V8.04906L8.98644 8.75ZM3.75855 8.75C3.80829 7.71616 4.11548 6.71112 4.65223 5.82613C5.36864 6.02731 6.09585 6.18782 6.83039 6.30687C6.59873 7.10166 6.4685 7.92254 6.44277 8.75H3.75855ZM9.49234 2.83324C9.55715 2.82801 9.62215 2.82344 9.68738 2.82023V5.93469C9.00995 5.92345 8.33359 5.8764 7.66113 5.79375C8.07555 4.69837 8.69731 3.69319 9.49234 2.83324ZM8.36148 9.375L7.18379 10.5527C7.12022 10.163 7.08162 9.76961 7.06824 9.375H8.36148ZM10.3124 6.55973C10.6119 6.55496 10.9116 6.54333 11.2116 6.52484L10.3124 7.42406V6.55973ZM11.8935 5.84297C11.3705 5.89516 10.8405 5.92594 10.3124 5.93461V2.82031C10.3777 2.82352 10.4428 2.82812 10.5077 2.83332C11.2325 3.61841 11.8141 4.52446 12.2262 5.51035L11.8935 5.84297ZM8.54285 2.9832C7.89418 3.80282 7.3822 4.72186 7.02672 5.7048C6.35216 5.59914 5.68375 5.45745 5.02434 5.28035C5.8949 4.12936 7.13888 3.31719 8.54285 2.9832ZM4.96734 12.7691C4.24044 11.7807 3.81993 10.6004 3.75805 9.375H6.44277C6.46113 9.95097 6.5299 10.5242 6.64828 11.0882L4.96734 12.7691ZM12.7015 5.03477C12.3727 4.30211 11.9546 3.61294 11.4566 2.98293C12.2695 3.17677 13.0348 3.53285 13.7066 4.0298L12.7015 5.03477Z" fill="#4C7DF0"/>
<path d="M15.7463 5.28819C15.6087 5.0789 15.4598 4.87726 15.3003 4.68417C15.2725 4.6506 15.2381 4.6232 15.1992 4.60372C15.1602 4.58424 15.1177 4.5731 15.0742 4.57103C15.0307 4.56896 14.9873 4.576 14.9466 4.59169C14.906 4.60739 14.8692 4.6314 14.8384 4.66218L5.59959 13.9008C5.5688 13.9316 5.54479 13.9685 5.52909 14.0091C5.51339 14.0497 5.50634 14.0931 5.50841 14.1366C5.51047 14.1801 5.5216 14.2227 5.54107 14.2616C5.56055 14.3006 5.58794 14.335 5.6215 14.3627C6.67053 15.2321 7.95555 15.768 9.31146 15.9015C9.74751 15.9445 10.1866 15.9465 10.623 15.9074V17.498C10.623 17.5609 10.642 17.6223 10.6774 17.6742C10.7129 17.7261 10.7632 17.7661 10.8217 17.789C10.8803 17.8119 10.9444 17.8166 11.0056 17.8025C11.0669 17.7884 11.1225 17.7561 11.1651 17.7099L13.9678 14.6738C15.4225 13.6447 16.421 12.091 16.7528 10.3402C17.0846 8.5894 16.7237 6.77816 15.7463 5.28815V5.28819ZM13.5812 14.1816C13.5629 14.1944 13.5461 14.2091 13.531 14.2255L11.248 16.6987V15.5562C11.248 15.5114 11.2384 15.4671 11.2198 15.4264C11.2012 15.3857 11.1741 15.3494 11.1403 15.3201C11.1064 15.2907 11.0667 15.269 11.0238 15.2564C10.9808 15.2437 10.9356 15.2404 10.8913 15.2468C10.7967 15.2603 10.7088 15.271 10.6225 15.2796C10.2071 15.3207 9.78875 15.3207 9.37338 15.2796C8.25772 15.1698 7.19266 14.7598 6.29135 14.0932L15.0306 5.35385C15.0979 5.445 15.1624 5.53755 15.2241 5.63151C16.1154 6.99062 16.4424 8.64344 16.1357 10.2396C15.829 11.8357 14.9128 13.2496 13.5812 14.1816Z" fill="#4C7DF0"/>
<path d="M10 12.8125C10.3452 12.8125 10.625 12.5327 10.625 12.1875C10.625 11.8423 10.3452 11.5625 10 11.5625C9.65482 11.5625 9.375 11.8423 9.375 12.1875C9.375 12.5327 9.65482 12.8125 10 12.8125Z" fill="#4C7DF0"/>
<path d="M11.875 12.8125C12.2202 12.8125 12.5 12.5327 12.5 12.1875C12.5 11.8423 12.2202 11.5625 11.875 11.5625C11.5298 11.5625 11.25 11.8423 11.25 12.1875C11.25 12.5327 11.5298 12.8125 11.875 12.8125Z" fill="#4C7DF0"/>
<path d="M13.75 12.8125C14.0952 12.8125 14.375 12.5327 14.375 12.1875C14.375 11.8423 14.0952 11.5625 13.75 11.5625C13.4048 11.5625 13.125 11.8423 13.125 12.1875C13.125 12.5327 13.4048 12.8125 13.75 12.8125Z" fill="#4C7DF0"/>
<path d="M3.12439 13.2842C3.04216 13.2739 2.95921 13.2967 2.89379 13.3476C2.82837 13.3985 2.78585 13.4733 2.77557 13.5555L2.74916 13.7664C1.63444 12.1959 1.11381 10.2804 1.2801 8.36167C1.4464 6.44291 2.28882 4.6456 3.65713 3.29023C3.68646 3.26139 3.70982 3.22704 3.72585 3.18916C3.74188 3.15127 3.75027 3.11059 3.75055 3.06946C3.75082 3.02832 3.74297 2.98753 3.72744 2.94944C3.71191 2.91134 3.68902 2.87669 3.66007 2.84746C3.63111 2.81823 3.59668 2.79501 3.55873 2.77912C3.52078 2.76324 3.48007 2.755 3.43894 2.75488C3.3978 2.75477 3.35704 2.76278 3.319 2.77845C3.28097 2.79412 3.2464 2.81715 3.21728 2.84621C1.74707 4.30242 0.840506 6.23256 0.658588 8.29387C0.476669 10.3552 1.03117 12.4143 2.22361 14.1055L1.95955 14.0664C1.91895 14.0604 1.87757 14.0624 1.83776 14.0724C1.79796 14.0824 1.7605 14.1001 1.72755 14.1246C1.66099 14.174 1.61677 14.2478 1.60463 14.3298C1.59249 14.4118 1.61341 14.4952 1.6628 14.5618C1.71219 14.6283 1.786 14.6725 1.86799 14.6847L2.92268 14.8409C2.96386 14.847 3.00585 14.8448 3.04618 14.8345C3.0865 14.8241 3.12436 14.8058 3.15751 14.7806C3.19066 14.7554 3.21844 14.7239 3.23922 14.6878C3.26001 14.6517 3.27337 14.6119 3.27853 14.5705L3.39572 13.633C3.40082 13.5923 3.39784 13.551 3.38696 13.5114C3.37608 13.4719 3.35751 13.4348 3.33231 13.4024C3.30712 13.37 3.27579 13.3429 3.24011 13.3226C3.20444 13.3023 3.16512 13.2893 3.12439 13.2842Z" fill="#4C7DF0"/>
<path d="M17.7549 3.75C17.8378 3.75 17.9173 3.71708 17.9759 3.65847C18.0345 3.59987 18.0674 3.52038 18.0674 3.4375C18.0674 3.35462 18.0345 3.27513 17.9759 3.21653C17.9173 3.15792 17.8378 3.125 17.7549 3.125H16.8174C16.7346 3.125 16.6551 3.15792 16.5965 3.21653C16.5379 3.27513 16.5049 3.35462 16.5049 3.4375V4.375C16.5049 4.45788 16.5379 4.53737 16.5965 4.59597C16.6551 4.65458 16.7346 4.6875 16.8174 4.6875C16.9003 4.6875 16.9798 4.65458 17.0384 4.59597C17.097 4.53737 17.1299 4.45788 17.1299 4.375V4.27195C18.2685 5.83163 18.8143 7.74582 18.6696 9.67141C18.5249 11.597 17.699 13.4081 16.3402 14.7801C16.2818 14.839 16.2493 14.9186 16.2497 15.0015C16.2501 15.0844 16.2834 15.1637 16.3423 15.222C16.4012 15.2804 16.4808 15.3129 16.5637 15.3125C16.6466 15.3121 16.7259 15.2788 16.7842 15.2199C18.2708 13.719 19.1642 11.7309 19.2994 9.62271C19.4347 7.51453 18.8027 5.42859 17.5201 3.75H17.7549Z" fill="#4C7DF0"/>
</svg>
