<svg width="20" height="20" viewBox="0 0 20 20" fill="none" xmlns="http://www.w3.org/2000/svg">
<path d="M17.9754 4.44531H2.02107C1.51962 4.44531 1.10938 4.84914 1.10938 5.34273V15.2145C1.10938 15.7081 1.51962 16.112 2.02107 16.112H17.9755C18.4768 16.112 18.8872 15.7081 18.8872 15.2145V5.34273C18.8871 4.84914 18.4769 4.44531 17.9754 4.44531ZM17.6333 5.11834L10.5227 10.3684C10.3948 10.4642 10.1986 10.5241 9.99821 10.5232C9.79786 10.5241 9.60165 10.4642 9.47377 10.3684L2.36316 5.11834H17.6333ZM13.835 10.7148L17.7097 15.4264C17.7136 15.4311 17.7183 15.4347 17.7225 15.4389H2.27403C2.27812 15.4345 2.28291 15.4311 2.2868 15.4264L6.16145 10.7148C6.28016 10.5703 6.25766 10.3585 6.11062 10.2414C5.96384 10.1245 5.74867 10.1467 5.62992 10.2912L1.79312 14.9567V5.53903L9.06374 10.9068C9.33703 11.1072 9.66953 11.1953 9.99818 11.1962C10.3264 11.1955 10.6591 11.1074 10.9326 10.9068L18.2032 5.53903V14.9567L14.3665 10.2912C14.2478 10.1467 14.0324 10.1245 13.8858 10.2414C13.7388 10.3583 13.7163 10.5703 13.835 10.7148Z" fill="#4C7DF0"/>
</svg>
